<svg cache-id="c6c920fccc77457cadd30c4cb0bd165c" id="eKA0tbn8qVa1" xmlns="http://www.w3.org/2000/svg" xmlns:xlink="http://www.w3.org/1999/xlink" viewBox="0 0 210 297" shape-rendering="geometricPrecision" text-rendering="geometricPrecision"><g><path d="M120.45548,127.56808c0-1.31313-1.06812-2.38125-2.38125-2.38125h-.79375v-1.5875c0-3.50123-2.84877-6.35-6.35-6.35s-6.35,2.84877-6.35,6.35v1.5875h-.79375c-1.31313,0-2.38125,1.06812-2.38125,2.38125v9.525c0,1.31313,1.06812,2.38125,2.38125,2.38125h14.2875c1.31313,0,2.38125-1.06812,2.38125-2.38125Zm-14.2875-3.96875c0-2.62626,2.13625-4.7625,4.7625-4.7625s4.7625,2.13624,4.7625,4.7625v1.5875h-.79375v-1.5875c0-2.18837-1.78038-3.96875-3.96875-3.96875s-3.96875,1.78038-3.96875,3.96875v1.5875h-.79375Zm7.14375,0v1.5875h-4.7625v-1.5875c0-1.31313,1.06812-2.38125,2.38125-2.38125s2.38125,1.06812,2.38125,2.38125Zm5.55625,13.49375c0,.43762-.35613.79375-.79375.79375h-3.175v-4.90882c.92181-.32861,1.5875-1.20147,1.5875-2.23493c0-1.31313-1.06812-2.38125-2.38125-2.38125s-2.38125,1.06812-2.38125,2.38125c0,1.03346.66569,1.90632,1.5875,2.23493v4.90882h-1.5875v-3.175c0-.25003-.11747-.48525-.3175-.63474l-1.38853-1.04166c.50032-1.59967-.71993-3.0861-2.26272-3.0861-1.31313,0-2.38125,1.06812-2.38125,2.38125c0,1.90526,2.13175,3.02763,3.69941,1.98067l1.06309.79745v2.77813h-6.35c-.43762,0-.79375-.35613-.79375-.79375v-9.525c0-.43762.35613-.79375.79375-.79375h14.2875c.43762,0,.79375.35613.79375.79375Zm-4.7625-5.55625c-.43762,0-.79375-.35613-.79375-.79375s.35613-.79375.79375-.79375.79375.35613.79375.79375-.35613.79375-.79375.79375Zm-5.55625.79375c0,.43762-.35613.79375-.79375.79375s-.79375-.35613-.79375-.79375.35613-.79375.79375-.79375.79375.35613.79375.79375Z" stroke-width="0.628275"/><path d="M129.60428,125.67845c-.0238.0805-.0383.16338-.0383.25131.002584.27585.122266.537608.32921.72002l-.002.002c2.655187,2.33387,6.069975,3.619999,9.60508,3.61761c3.497233.001984,6.878038-1.256479,9.52276-3.54473.24592-.177529.391366-.462567.3908-.76587-.001345-.089097-.015489-.177538-.042-.26261l.009-.002c-.99202-3.41019-4.16291-5.79196-7.71078-5.79196h-.72189c2.6218-.6503,4.57446-3.017,4.57446-5.83734c0-3.31918-2.70032-6.02015-6.02012-6.02015s-6.02015,2.70034-6.02015,6.02015c0,2.82034,1.95206,5.18704,4.57449,5.83734h-.76399c-3.42727,0-6.49888,2.23411-7.59019,5.46662-.0346.10235-.0736.20303-.10423.30784Zm5.76068-11.61432c0-2.28,1.85527-4.13531,4.1353-4.13531s4.1353,1.85531,4.1353,4.13531-1.8553,4.13533-4.1353,4.13533-4.1353-1.85529-4.1353-4.13533Zm1.92566,7.72217h4.3772c2.62177,0,4.96963,1.07371,5.81216,3.54157l-.51771.62766-.001.00063c-2.167576,1.579395-4.780697,2.429681-7.46265,2.42828-2.688256.000563-5.306798-.855264-7.47583-2.44335l-.52841-.62892c.84379-2.45781,3.18538-3.52587,5.79649-3.52587Z" transform="translate(3.928308 1.232664)" stroke-width="0.628275"/><path d="M72.157591,125.67845c-.0238.0805-.0383.16338-.0383.25131.002584.27585.122266.537608.32921.72002l-.002.002c2.655187,2.33387,6.069975,3.619999,9.60508,3.61761c3.497233.001984,6.878038-1.256479,9.52276-3.54473.24592-.177529.391366-.462567.3908-.76587-.001345-.089097-.015489-.177538-.042-.26261l.009-.002c-.99202-3.41019-4.16291-5.79196-7.71078-5.79196h-.72189c2.6218-.6503,4.57446-3.017,4.57446-5.83734c0-3.31918-2.70032-6.02015-6.02012-6.02015s-6.02015,2.70034-6.02015,6.02015c0,2.82034,1.95206,5.18704,4.57449,5.83734h-.76399c-3.42727,0-6.49888,2.23411-7.59019,5.46662-.0346.10235-.0736.20303-.10423.30784Zm5.76068-11.61433c0-2.28,1.85527-4.13531,4.1353-4.13531s4.1353,1.85531,4.1353,4.13531-1.8553,4.13533-4.1353,4.13533-4.1353-1.85529-4.1353-4.13533Zm1.92566,7.72218h4.3772c2.62177,0,4.96963,1.07371,5.81216,3.54157l-.51771.62766-.001.00063c-2.167577,1.579391-4.780698,2.429674-7.46265,2.42827-2.688255.000566-5.306796-.855257-7.47583-2.44334l-.52841-.62892c.84379-2.45781,3.18538-3.52587,5.79649-3.52587Z" transform="translate(-4.428832 1.232617)" stroke-width="0.628275"/><path d="M110.76312,98.475824c6.040886-.00613,11.969553,1.631846,17.15048,4.738346l2.6321-1.522c-5.875049-3.86053-12.752654-5.914708-19.78258-5.908588-6.89441-.005371-13.645065,1.971135-19.447869,5.694088l2.650966,1.53278c5.097882-2.97407,10.894914-4.539083,16.796903-4.534626Z" transform="translate(.000002 0)" stroke-width="0.628"/><path d="M77.810963,137.93154h-2.735318c1.727512,10.37233,7.87929,19.26211,16.446913,24.66365l1.224067-2.41225c-7.699796-4.9331-13.252989-12.92456-14.935662-22.2514Z" transform="translate(.000001 0)" stroke-width="0.628275"/><path d="M129.23189,159.89396l1.17831,2.44098c8.35492-5.42488,14.33979-14.1953,16.03948-24.40249h-2.73443c-1.64943,9.14284-7.01685,17.0069-14.48336,21.96151Z" transform="translate(.000001 0)" stroke-width="0.628275"/><path d="M101.04585,166.12753c-.0238.0805-.0383.16338-.0383.25131.002584.27585.122266.537608.32921.72002l-.002.002c2.655186,2.333874,6.069974,3.620007,9.60508,3.61762c3.497235.001981,6.87804-1.256485,9.52276-3.54474.24592-.177529.391366-.462567.3908-.76587-.001345-.089097-.015489-.177538-.042-.26261l.009-.002c-.99202-3.41019-4.16291-5.79196-7.71078-5.79196h-.72189c2.6218-.6503,4.57446-3.017,4.57446-5.83734c0-3.31918-2.70032-6.02015-6.02012-6.02015s-6.02015,2.70034-6.02015,6.02015c0,2.82034,1.95206,5.18704,4.57449,5.83734h-.76399c-3.42727,0-6.49888,2.23411-7.59019,5.46662-.0346.10235-.0736.20303-.10423.30784Zm5.76068-11.61432c0-2.28,1.85527-4.13531,4.1353-4.13531s4.1353,1.85531,4.1353,4.13531-1.8553,4.13533-4.1353,4.13533-4.1353-1.85529-4.1353-4.13533Zm1.92566,7.72217h4.3772c2.62177,0,4.96963,1.07371,5.81216,3.54157l-.51771.62766-.001.00063c-2.167576,1.579395-4.780697,2.429681-7.46265,2.42828-2.688256.000563-5.306798-.855264-7.47583-2.44335l-.52841-.62892c.84379-2.45781,3.18538-3.52587,5.79649-3.52587Z" transform="translate(-.415201 7.772367)" stroke-width="0.628275"/></g></svg>
